<?xml version="1.0" encoding="UTF-8" standalone="no"?>
<svg
   xmlns:dc="http://purl.org/dc/elements/1.1/"
   xmlns:cc="http://creativecommons.org/ns#"
   xmlns:rdf="http://www.w3.org/1999/02/22-rdf-syntax-ns#"
   xmlns:svg="http://www.w3.org/2000/svg"
   xmlns="http://www.w3.org/2000/svg"
   viewBox="0 0 140.03999 50.639999"
   height="50.639999"
   width="140.03999"
   xml:space="preserve"
   id="svg2"
   version="1.1"><metadata
     id="metadata8"><rdf:RDF><cc:Work
         rdf:about=""><dc:format>image/svg+xml</dc:format><dc:type
           rdf:resource="http://purl.org/dc/dcmitype/StillImage" /></cc:Work></rdf:RDF></metadata><defs
     id="defs6"><clipPath
       id="clipPath20"
       clipPathUnits="userSpaceOnUse"><path
         id="path18"
         d="M 0,0 H 1050 V 379.836 H 0 Z" /></clipPath></defs><g
     transform="matrix(1.3333333,0,0,-1.3333333,0,50.64)"
     id="g10"><g
       transform="scale(0.1)"
       id="g12"><g
         id="g14"><g
           clip-path="url(#clipPath20)"
           id="g16"><path
             id="path22"
             style="fill:#1a2d67;fill-opacity:1;fill-rule:nonzero;stroke:none"
             d="M 24.8672,95.8594 C 46.7188,58.2422 80.0898,29.1211 120.137,13.3398 94.6602,29.1211 70.3828,47.9297 48.5391,70.3906 c -8.5,7.8906 -15.7813,16.3672 -23.6719,25.4688 v 0" /><path
             id="path24"
             style="fill:#1a2d67;fill-opacity:1;fill-rule:nonzero;stroke:none"
             d="M 4.84766,148.047 C 6.66797,140.156 9.10156,132.266 11.5195,125 24.2695,107.402 37.6172,91.0156 53.3906,75.2344 83.1211,46.1133 115.891,22.4414 151.09,4.23828 158.969,2.42188 167.461,1.21094 175.352,0.605469 132.883,19.4141 93.4375,46.1133 58.8555,80.6836 37.6172,101.328 20.0195,124.375 4.84766,148.047 v 0" /><path
             id="path26"
             style="fill:#1a2d67;fill-opacity:1;fill-rule:nonzero;stroke:none"
             d="M 0,185.664 C 0,179.609 0.601562,173.535 1.21094,168.066 17.5898,138.34 38.8281,110.43 63.7109,85.5469 102.539,46.7188 147.441,18.2031 195.371,0 201.449,0 207.52,0.605469 213.59,1.21094 160.789,18.8086 111.039,48.5352 68.5586,91.0156 40.0391,119.531 17.5898,151.68 0,185.664 v 0" /><path
             id="path28"
             style="fill:#1a2d67;fill-opacity:1;fill-rule:nonzero;stroke:none"
             d="M 1.82031,216.012 C 1.21094,211.152 0.601562,206.293 0.601562,201.441 17.5898,163.223 42.4688,127.422 74.0195,95.8594 118.922,50.957 172.32,20.625 229.359,4.23828 234.211,4.84375 239.07,6.05469 243.922,7.89062 183.848,22.4414 126.199,54.0039 78.8789,101.328 44.8984,135.312 19.4102,174.746 1.82031,216.012 v 0" /><path
             id="path30"
             style="fill:#1a2d67;fill-opacity:1;fill-rule:nonzero;stroke:none"
             d="M 7.28125,242.699 C 6.05859,238.453 4.84766,234.215 4.25,229.961 21.2383,185.059 47.9297,142.598 84.3398,106.172 133.492,57.0312 193.559,25.4883 257.27,12.1289 c 3.636,1.2109 7.902,3.0273 12.128,4.8633 C 203.262,29.1211 140.16,60.6641 89.1914,111.035 50.9688,149.863 23.6602,194.16 7.28125,242.699 v 0" /><path
             id="path32"
             style="fill:#1a2d67;fill-opacity:1;fill-rule:nonzero;stroke:none"
             d="M 15.7734,265.152 C 13.9492,261.516 12.7383,257.871 10.918,254.234 26.6914,203.262 54,156.543 94.0469,116.504 146.84,63.7109 212.367,32.7539 280.332,22.4414 c 3.629,1.8164 6.672,4.2578 10.316,6.0742 C 220.867,37.0117 152.91,67.9492 99.5039,121.348 58.2383,163.223 30.332,212.363 15.7734,265.152 v 0" /><path
             id="path34"
             style="fill:#1a2d67;fill-opacity:1;fill-rule:nonzero;stroke:none"
             d="m 81.2969,164.434 c -10.9141,2.421 -19.4063,12.128 -19.4063,24.265 0,1.211 0,2.434 0,3.645 -16.9922,29.133 -29.1328,60.679 -36.414,92.836 -1.8164,-3.035 -3.6368,-6.071 -4.8477,-9.715 13.3516,-54.602 41.2617,-106.188 83.7301,-148.668 54.61,-54.59 124.391,-85.5275 195.383,-92.2072 3.035,2.4219 6.07,4.2383 9.106,6.6797 C 236.031,46.1133 165.039,76.4453 109.82,131.66 99.5039,141.992 89.8008,152.91 81.2969,164.434 v 0" /><path
             id="path36"
             style="fill:#1a2d67;fill-opacity:1;fill-rule:nonzero;stroke:none"
             d="m 70.3828,206.902 c -16.3828,30.34 -27.914,62.5 -33.3711,95.871 -1.8203,-3.031 -3.6445,-5.457 -6.0742,-8.492 6.0742,-32.765 17.6016,-64.32 34.5898,-93.437 1.211,2.418 3.0313,4.238 4.8555,6.058 v 0" /><path
             id="path38"
             style="fill:#1a2d67;fill-opacity:1;fill-rule:nonzero;stroke:none"
             d="m 97.6914,166.855 c -1.8242,-1.21 -4.8594,-2.421 -7.2812,-2.421 7.2812,-9.707 15.7738,-18.809 24.2698,-27.911 56.418,-55.8394 128.632,-85.566 202.05,-88.5933 2.43,2.4414 4.852,4.8437 7.887,7.2851 -74.637,1.211 -148.051,30.3321 -204.48,86.7772 -7.887,7.871 -15.164,16.367 -22.4456,24.863 v 0" /><path
             id="path40"
             style="fill:#1a2d67;fill-opacity:1;fill-rule:nonzero;stroke:none"
             d="M 295.496,64.3164 C 307.02,63.1055 319.16,62.5 331.301,62.5 c 1.808,1.8164 3.633,4.2383 5.457,6.0547 -10.93,-3.0274 -23.059,-4.2383 -35.199,-4.2383 -1.817,0 -4.239,0 -6.063,0 v 0" /><path
             id="path42"
             style="fill:#1a2d67;fill-opacity:1;fill-rule:nonzero;stroke:none"
             d="m 130.461,152.305 c -7.895,7.871 -15.781,16.386 -22.465,24.863 -1.211,-2.422 -2.426,-4.238 -4.234,-6.074 6.668,-8.496 13.34,-16.367 21.226,-24.258 39.45,-38.828 86.77,-64.3165 137.129,-76.4454 -15.168,4.8438 -28.519,11.5235 -40.648,20.625 -33.367,13.9454 -64.321,34.5704 -91.008,61.2894 v 0" /><path
             id="path44"
             style="fill:#1a2d67;fill-opacity:1;fill-rule:nonzero;stroke:none"
             d="M 84.3398,212.363 C 65.5273,245.133 54,281.543 49.75,317.945 c -2.4297,-2.433 -4.2422,-4.855 -6.668,-7.281 4.8477,-35.199 16.375,-68.57 33.3672,-100.121 2.4297,1.211 4.8477,1.82 7.8906,1.82 v 0" /><path
             id="path46"
             style="fill:#1a2d67;fill-opacity:1;fill-rule:nonzero;stroke:none"
             d="m 199.629,112.246 c -2.434,3.027 -4.859,6.074 -7.289,9.707 -18.199,10.938 -35.801,24.883 -51.57,40.645 -47.3325,46.734 -73.4302,106.804 -77.6684,168.695 -2.4336,-2.43 -4.8633,-4.254 -7.2813,-6.68 4.25,-39.433 16.3789,-77.66 37.0117,-112.859 10.316,-3.031 18.207,-12.129 18.207,-23.055 0,-1.211 0,-2.429 0,-3.64 7.281,-9.707 15.16,-18.809 24.27,-27.911 20.629,-20.625 43.691,-37.617 68.558,-50.351 0,0.605 0,0.605 0,0.605 -1.207,1.211 -2.418,3.028 -4.238,4.844 v 0" /><path
             id="path48"
             style="fill:#1a2d67;fill-opacity:1;fill-rule:nonzero;stroke:none"
             d="m 150.48,172.93 c -46.718,46.715 -71.6011,107.394 -73.4214,169.281 -2.4297,-1.82 -4.8594,-3.637 -7.2891,-5.457 3.0391,-61.891 28.5196,-122.57 75.8515,-169.293 12.137,-12.129 25.477,-23.047 39.438,-32.149 -1.817,3.633 -3.637,7.872 -5.457,12.735 -9.715,7.285 -19.411,15.781 -29.122,24.883 v 0" /><path
             id="path50"
             style="fill:#1a2d67;fill-opacity:1;fill-rule:nonzero;stroke:none"
             d="m 251.199,126.211 c 13.973,-10.938 32.16,-18.203 51.578,-18.203 10.313,0 20.02,1.816 28.524,4.844 -27.313,0 -54,4.257 -80.102,13.359 v 0" /><path
             id="path52"
             style="fill:#1a2d67;fill-opacity:1;fill-rule:nonzero;stroke:none"
             d="m 160.789,183.242 c -46.719,46.11 -69.7773,107.403 -69.7773,168.68 -2.4219,-1.207 -4.8515,-3.031 -7.2812,-4.25 1.2109,-61.883 24.8785,-123.168 72.2075,-169.899 6.667,-6.679 13.347,-12.734 20.628,-18.808 -1.214,4.258 -1.824,7.89 -2.425,11.523 -4.254,4.258 -9.102,7.891 -13.352,12.754 v 0" /><path
             id="path54"
             style="fill:#1a2d67;fill-opacity:1;fill-rule:nonzero;stroke:none"
             d="m 172.93,191.133 c -0.61,0.601 -1.219,1.211 -1.832,1.211 -46.11,46.109 -67.95,107.398 -65.528,168.082 -2.422,-1.223 -4.851,-3.043 -7.2809,-4.254 -1.2071,-60.68 21.2419,-122.567 67.9609,-168.086 1.82,-2.422 4.246,-4.844 6.68,-7.266 0,3.645 0,7.266 0,10.313 v 0" /><path
             id="path56"
             style="fill:#1a2d67;fill-opacity:1;fill-rule:nonzero;stroke:none"
             d="m 232.387,149.863 c 1.824,-4.238 3.644,-7.871 6.07,-10.918 34.578,-15.175 72.203,-20.625 108.613,-18.203 4.246,2.422 7.891,5.469 11.528,8.496 -42.469,-5.468 -86.766,1.211 -126.211,20.625 v 0" /><path
             id="path58"
             style="fill:#1a2d67;fill-opacity:1;fill-rule:nonzero;stroke:none"
             d="m 227.551,168.691 c 0.59,-3.652 1.199,-6.679 1.808,-9.726 42.473,-21.836 91.012,-29.121 137.141,-21.231 0.602,0.606 0.602,0.606 1.199,1.211 1.821,2.422 3.641,4.864 4.86,7.891 -48.551,-10.313 -100.727,-3.027 -145.008,21.855 v 0" /><path
             id="path60"
             style="fill:#1a2d67;fill-opacity:1;fill-rule:nonzero;stroke:none"
             d="m 174.742,209.941 c -40.047,44.293 -58.242,101.332 -54.004,157.153 -2.418,-1.219 -5.461,-2.43 -7.886,-3.641 -3.032,-58.254 16.988,-117.711 60.679,-163.219 0,1.207 0,2.418 0.61,3.637 0,1.82 0.601,4.254 0.601,6.07 v 0" /><path
             id="path62"
             style="fill:#1a2d67;fill-opacity:1;fill-rule:nonzero;stroke:none"
             d="m 135.906,371.945 c -3.023,-0.601 -5.445,-1.211 -7.879,-2.433 -4.859,-53.387 11.524,-107.996 48.539,-151.078 1.211,2.429 1.825,5.457 3.036,8.5 -34.59,41.25 -49.141,94.039 -43.696,145.011 v 0" /><path
             id="path64"
             style="fill:#1a2d67;fill-opacity:1;fill-rule:nonzero;stroke:none"
             d="m 243.312,176.562 c -5.46,3.047 -11.527,6.075 -16.984,9.708 0,-3.028 0,-6.055 0,-9.102 46.106,-26.699 99.5,-34.57 149.863,-22.441 1.219,2.421 1.829,4.843 2.438,7.285 0,0.586 0,0.586 0,0.586 -39.449,-10.293 -81.918,-7.871 -120.152,7.304 h -15.165 v 6.66" /><path
             id="path66"
             style="fill:#1a2d67;fill-opacity:1;fill-rule:nonzero;stroke:none"
             d="m 226.328,194.16 c 5.457,-3.637 11.524,-6.672 16.984,-9.695 v 7.879 c -5.46,3.027 -10.925,6.672 -16.374,10.308 -0.61,-3.027 -0.61,-6.058 -0.61,-8.492 v 0" /><path
             id="path68"
             style="fill:#1a2d67;fill-opacity:1;fill-rule:nonzero;stroke:none"
             d="m 280.93,169.902 c 32.16,-8.496 66.742,-8.496 98.898,0.586 0,2.442 0,4.864 0.61,7.891 -1.2,-0.606 -2.418,-0.606 -3.641,-1.211 0,-2.422 -0.606,-4.844 -0.606,-7.266 H 280.93 v 0" /><path
             id="path70"
             style="fill:#1a2d67;fill-opacity:1;fill-rule:nonzero;stroke:none"
             d="m 150.48,375.582 c -2.433,0 -4.859,-0.602 -7.281,-1.211 -6.07,-49.137 6.668,-99.508 38.832,-140.156 1.211,2.426 2.418,5.457 3.637,7.879 -29.73,38.84 -41.258,87.379 -35.188,133.488 v 0" /><path
             id="path72"
             style="fill:#1a2d67;fill-opacity:1;fill-rule:nonzero;stroke:none"
             d="m 194.16,255.445 c -26.09,36.407 -35.191,80.7 -28.519,123.18 -2.422,-0.613 -4.852,-0.613 -7.883,-1.223 -6.668,-44.293 4.246,-91.011 31.562,-128.629 v 0 c 1.809,1.817 3.02,4.25 4.84,6.672 v 0" /><path
             id="path74"
             style="fill:#1a2d67;fill-opacity:1;fill-rule:nonzero;stroke:none"
             d="m 380.438,189.91 c 0,0.613 0,1.824 0,3.043 -1.809,-0.609 -3.028,-1.219 -4.848,-1.82 0,-1.832 0.601,-4.246 0.601,-6.668 1.219,0.594 3.047,0.594 4.247,1.199 0,1.824 0,3.035 0,4.246 v 0" /><path
             id="path76"
             style="fill:#1a2d67;fill-opacity:1;fill-rule:nonzero;stroke:none"
             d="m 228.141,210.543 c 4.855,-3.641 10.316,-7.281 15.171,-10.309 v 7.891 h 1.817 c -5.449,3.027 -10.309,6.059 -15.168,9.695 -0.602,-2.422 -1.211,-4.847 -1.82,-7.277 v 0" /><path
             id="path78"
             style="fill:#1a2d67;fill-opacity:1;fill-rule:nonzero;stroke:none"
             d="m 380.438,200.234 c 0,2.418 -0.61,4.848 -0.61,7.282 -2.418,-0.614 -4.238,-1.223 -6.668,-1.825 0.61,-2.429 1.219,-4.847 1.219,-7.277 1.812,0.602 4.25,1.211 6.059,1.82 v 0" /><path
             id="path80"
             style="fill:#1a2d67;fill-opacity:1;fill-rule:nonzero;stroke:none"
             d="m 180.812,379.836 c -2.421,0 -5.46,-0.613 -7.882,-0.613 -7.289,-40.649 1.211,-83.121 25.476,-118.321 1.824,2.434 3.043,4.25 4.856,6.071 -22.45,33.371 -29.731,74.629 -22.45,112.863 v 0" /><path
             id="path82"
             style="fill:#1a2d67;fill-opacity:1;fill-rule:nonzero;stroke:none"
             d="m 279.109,208.125 c -15.16,5.461 -29.73,13.352 -43.078,23.656 -1.211,-1.82 -2.433,-4.246 -3.644,-6.679 8.504,-6.668 17.593,-12.129 27.308,-16.977 h 19.414 v 0" /><path
             id="path84"
             style="fill:#1a2d67;fill-opacity:1;fill-rule:nonzero;stroke:none"
             d="m 195.371,379.836 c -1.812,0 -3.633,0 -4.851,0 -1.2,0 -1.809,0 -2.418,0 -7.891,-36.414 -0.614,-75.231 20.621,-108.016 1.824,1.832 3.644,3.645 5.476,4.864 -20.039,30.937 -26.097,68.57 -18.828,103.152 v 0" /><path
             id="path86"
             style="fill:#1a2d67;fill-opacity:1;fill-rule:nonzero;stroke:none"
             d="m 378.629,214.789 c 0,2.422 -0.609,5.477 -0.609,7.891 -3.04,-1.203 -5.461,-1.817 -8.5,-3.035 1.207,-2.434 1.82,-4.856 2.429,-7.282 2.43,1.223 4.848,1.821 6.68,2.426 v 0" /><path
             id="path88"
             style="fill:#1a2d67;fill-opacity:1;fill-rule:nonzero;stroke:none"
             d="m 320.371,208.125 c 0,1.816 0,4.238 0,6.059 -26.699,1.828 -52.781,11.531 -75.242,28.515 -0.598,-0.605 -1.207,-1.207 -1.817,-1.816 -1.21,-1.211 -2.421,-2.43 -3.632,-3.031 20.617,-16.375 43.679,-26.098 67.949,-29.727 h 12.742 v 0" /><path
             id="path90"
             style="fill:#1a2d67;fill-opacity:1;fill-rule:nonzero;stroke:none"
             d="m 209.941,379.223 c -2.421,0 -4.851,0 -7.281,0.613 -7.289,-33.371 -1.808,-69.172 17.59,-98.902 1.828,1.211 3.652,2.429 6.078,3.636 -18.207,28.52 -23.668,62.5 -16.387,94.653 v 0" /><path
             id="path92"
             style="fill:#1a2d67;fill-opacity:1;fill-rule:nonzero;stroke:none"
             d="m 376.191,229.352 c 0,2.429 -0.601,4.863 -1.211,7.289 -3.64,-1.215 -6.668,-2.426 -10.312,-3.036 1.223,-2.433 1.832,-4.867 3.031,-7.281 3.028,1.211 5.461,1.821 8.492,3.028 v 0" /><path
             id="path94"
             style="fill:#1a2d67;fill-opacity:1;fill-rule:nonzero;stroke:none"
             d="m 315.527,229.352 c -20.031,1.82 -38.839,9.101 -55.832,21.238 -3.035,-1.211 -5.457,-2.426 -7.886,-3.637 20.023,-15.172 43.078,-23.672 66.742,-25.476 -0.602,2.414 -1.821,5.457 -3.024,7.875 v 0" /><path
             id="path96"
             style="fill:#1a2d67;fill-opacity:1;fill-rule:nonzero;stroke:none"
             d="m 372.559,243.91 c -0.61,1.832 -1.219,4.254 -1.832,6.68 -4.227,-1.211 -8.485,-3.028 -12.731,-4.246 1.215,-1.824 2.426,-4.25 3.637,-6.672 3.644,1.211 7.289,2.422 10.926,4.238 v 0" /><path
             id="path98"
             style="fill:#1a2d67;fill-opacity:1;fill-rule:nonzero;stroke:none"
             d="m 297.32,247.562 c -3.043,1.211 -6.672,2.418 -9.715,3.637 -6.066,1.824 -12.746,1.824 -18.804,1.211 12.738,-7.89 27.297,-12.738 41.258,-15.168 -3.637,4.25 -7.879,7.891 -12.739,10.32 v 0" /><path
             id="path100"
             style="fill:#1a2d67;fill-opacity:1;fill-rule:nonzero;stroke:none"
             d="m 224.504,376.801 c -2.426,0.601 -4.856,1.211 -7.285,1.211 -7.278,-30.34 -2.418,-63.102 15.777,-90.41 1.824,1.21 4.246,2.433 6.684,3.043 -17,25.48 -22.461,57.027 -15.176,86.156 v 0" /><path
             id="path102"
             style="fill:#1a2d67;fill-opacity:1;fill-rule:nonzero;stroke:none"
             d="m 368.312,257.262 c -1.21,2.429 -1.812,4.863 -3.035,7.277 -4.855,-2.414 -10.316,-4.234 -15.773,-4.848 1.812,-2.429 3.035,-4.847 4.848,-6.668 4.859,1.211 9.093,2.422 13.96,4.239 v 0" /><path
             id="path104"
             style="fill:#1a2d67;fill-opacity:1;fill-rule:nonzero;stroke:none"
             d="m 238.457,373.766 c -2.426,0.605 -4.859,1.214 -7.273,1.816 -6.68,-27.91 -1.825,-58.238 15.765,-83.121 2.43,1.211 5.473,1.211 7.891,1.82 -17.598,23.063 -23.055,52.789 -16.383,79.485 v 0" /><path
             id="path106"
             style="fill:#1a2d67;fill-opacity:1;fill-rule:nonzero;stroke:none"
             d="m 273.035,296.102 c -20.008,20.023 -26.687,47.929 -20.613,73.41 -2.442,0.621 -4.863,1.832 -7.293,2.433 -6.059,-26.082 0,-54.601 18.199,-76.453 3.039,0 6.07,0.61 9.707,0.61 v 0" /><path
             id="path108"
             style="fill:#1a2d67;fill-opacity:1;fill-rule:nonzero;stroke:none"
             d="m 344.641,265.762 v 0 c 6.066,0.609 12.136,2.422 17.601,4.847 -0.609,2.434 -1.82,4.856 -3.031,6.688 -6.672,-2.434 -13.961,-4.254 -21.242,-4.856 2.429,-2.425 4.851,-4.257 6.672,-6.679 v 0" /><path
             id="path110"
             style="fill:#1a2d67;fill-opacity:1;fill-rule:nonzero;stroke:none"
             d="m 283.961,305.199 c -16.371,15.774 -21.844,38.223 -17.594,58.863 -2.418,1.219 -4.847,2.434 -7.273,3.032 -5.465,-23.063 1.203,-49.149 19.418,-67.352 1.82,-1.211 3.027,-3.039 4.847,-4.25 7.289,-0.609 14.563,-2.43 21.84,-4.254 -7.879,3.043 -15.16,7.895 -21.238,13.961 v 0" /><path
             id="path112"
             style="fill:#1a2d67;fill-opacity:1;fill-rule:nonzero;stroke:none"
             d="m 355.57,283.363 c -1.218,2.426 -2.422,4.852 -3.64,6.672 -13.36,-4.855 -27.313,-4.855 -40.66,-1.223 6.679,-2.421 12.738,-6.058 18.808,-10.312 8.492,0 17.594,1.824 25.492,4.863 v 0" /><path
             id="path114"
             style="fill:#1a2d67;fill-opacity:1;fill-rule:nonzero;stroke:none"
             d="m 348.281,296.102 c -1.82,2.429 -3.031,4.242 -4.851,6.671 -16.989,-4.847 -35.801,-0.601 -49.153,12.739 -11.527,11.527 -16.367,27.312 -14.558,42.48 -2.418,1.211 -4.86,2.434 -7.285,3.028 -3.036,-17.598 2.425,-37.004 16.382,-50.965 15.786,-15.774 38.856,-20.621 59.465,-13.953 v 0" /><path
             id="path116"
             style="fill:#1a2d67;fill-opacity:1;fill-rule:nonzero;stroke:none"
             d="m 338.57,308.844 c -1.812,1.82 -3.636,4.246 -5.461,6.668 -10.312,-1.211 -20.629,2.433 -28.507,10.324 -6.68,6.668 -10.325,15.164 -10.93,23.656 -2.422,1.223 -4.856,3.043 -7.285,4.246 -0.606,-11.527 3.652,-24.265 12.746,-33.367 10.926,-10.918 25.484,-14.559 39.437,-11.527 v 0" /><path
             id="path118"
             style="fill:#1a2d67;fill-opacity:1;fill-rule:nonzero;stroke:none"
             d="m 327.051,322.191 c -7.891,7.891 -16.391,15.172 -25.492,21.84 1.218,-4.847 3.64,-9.699 7.89,-13.336 4.86,-4.859 10.922,-7.894 17.602,-8.504 v 0" /><path
             id="path120"
             style="fill:#1a2d67;fill-opacity:1;fill-rule:nonzero;stroke:none"
             d="m 698.391,149.863 c 3.035,-16.972 9.707,-29.726 25.488,-34.59 18.809,-5.449 42.469,-4.238 54.004,10.938 4.234,5.449 4.851,13.34 3.023,20.019 -3.023,10.313 -12.129,12.735 -30.332,16.368 -15.777,3.652 -54.605,7.89 -75.23,23.672 -16.399,12.746 -24.895,37.011 -16.399,63.71 9.727,28.52 38.848,41.258 60.696,44.301 40.64,6.063 73.406,-9.101 87.363,-23.672 10.926,-11.527 18.199,-29.726 17.598,-47.328 h -44.907 c -0.601,5.457 -1.211,10.934 -3.64,15.781 -5.457,12.137 -18.203,19.418 -32.16,19.418 -15.782,1.211 -32.157,-3.035 -38.829,-16.386 -2.429,-4.852 -2.429,-13.356 1.829,-18.203 9.707,-10.918 28.503,-11.528 44.89,-14.559 27.91,-4.852 58.254,-9.707 71.594,-32.77 15.176,-26.699 6.68,-57.031 -3.02,-69.16 -6.675,-8.5153 -14.566,-16.3864 -24.879,-22.4606 -17.597,-9.707 -47.335,-13.3398 -76.449,-8.4961 -26.707,4.2383 -44.91,17.5977 -55.222,33.9847 -7.891,12.734 -12.735,23.672 -12.735,39.433 h 47.317 v 0" /><path
             id="path122"
             style="fill:#1a2d67;fill-opacity:1;fill-rule:nonzero;stroke:none"
             d="m 494.512,208.125 h 76.457 c 1.211,17.59 -12.141,37.008 -29.731,42.465 -16.379,4.855 -33.379,1.82 -47.328,-9.707 -12.738,-11.531 -16.992,-35.801 -16.992,-50.973 0.602,-28.504 6.07,-48.543 22.453,-60.672 10.918,-7.89 35.797,-18.203 57.641,-2.441 9.707,7.305 13.957,17.012 15.781,24.277 h 53.992 C 625.574,134.102 609.188,106.797 592.82,94.6484 563.691,73.418 525.461,69.1602 495.117,80.6836 430.199,104.961 419.879,166.855 424.742,203.871 c 2.426,15.172 7.887,30.941 15.778,44.902 15.16,24.27 37,41.262 67.339,46.11 33.379,4.859 66.157,-5.449 87.375,-29.121 12.149,-13.961 23.672,-37.024 27.911,-55.821 2.429,-12.75 4.863,-26.093 3.64,-40.039 H 494.512 v 38.223" /><path
             id="path124"
             style="fill:#1a2d67;fill-opacity:1;fill-rule:nonzero;stroke:none"
             d="m 989.043,140.156 c -5.469,-14.57 -20.645,-23.047 -38.84,-24.883 v 0 c -3.621,-0.605 -7.848,-1.191 -12.09,-0.585 -12.136,0 -22.449,6.054 -26.695,15.156 -4.856,9.101 -1.816,18.203 1.211,23.672 7.281,12.734 20.016,15.175 37.637,18.808 v 0 c 5.437,0.606 11.48,1.817 18.132,3.633 13.348,3.027 16.407,5.449 23.055,10.313 0,-4.864 0.617,-39.434 -2.41,-46.114 z m 54.607,-7.89 v 65.539 c -0.61,16.984 -0.61,33.976 -4.26,49.757 -3.63,15.774 -17.59,41.872 -62.495,47.321 -8.489,0.609 -17.579,0.609 -26.68,0.609 h -0.012 v 0 c -15.164,-0.609 -30.933,-3.031 -43.66,-7.89 -26.699,-10.918 -40.059,-37.012 -40.059,-64.321 h 48.536 c -1.211,13.961 9.113,26.699 18.808,30.352 4.246,1.812 10.32,3.027 16.387,3.027 12.14,0.59 24.265,-2.426 32.754,-10.316 5.461,-5.461 7.285,-12.739 5.461,-20.629 -3.032,-12.742 -16.992,-16.992 -38.227,-20.024 v -0.007 c -7.273,-1.211 -15.738,-1.813 -24.832,-3.032 -25.476,-3.027 -61.894,-15.765 -70.391,-52.789 -3.015,-14.551 -0.605,-41.25 21.844,-58.8474 15.18,-11.5234 36.418,-16.9922 52.793,-16.3867 7.297,0 14.563,0.6055 20.649,1.8164 v 0.0195 c 16.953,3.6329 30.293,11.5235 43.015,21.836 0.606,-3.0469 3.653,-14.5703 6.067,-17.6172 h 50.972 c -7.89,15.7812 -6.67,38.8474 -6.67,51.5824 v 0" /></g></g></g></g></svg>