<?xml version="1.0" encoding="UTF-8" standalone="no"?>
<!-- Created with Inkscape (http://www.inkscape.org/) -->

<svg
   xmlns:svg="http://www.w3.org/2000/svg"
   xmlns="http://www.w3.org/2000/svg"
   version="1.1"
   width="354.33069"
   height="531.49603"
   id="svg2849">
  <defs
     id="defs2851" />
  <g
     transform="translate(0,-520.86482)"
     id="layer1"
     style="fill:#00345c;fill-opacity:1">
    <path
       d="m 205.43359,601.32662 c -1.18105,21.65266 -18.70077,134.28814 -23.7081,147.47345 -6.84909,18.62162 -14.97786,21.25486 -28.69075,22.05667 -6.11884,0.72297 -24.69277,-4.23014 -20.45455,-25.64103 0.44114,-2.98776 6.80739,-17.22189 26.13637,-13.65755 6.40575,1.42182 8.84812,-15.16643 3.69075,-22.4924 -2.97381,-4.08899 -12.26545,-13.15475 -34.94075,-6.46368 -12.09127,4.60112 -36.300089,17.10702 -31.467639,60.22727 2.97381,13.01042 13.214489,30.13482 60.795459,31.25 18.62788,0.0878 61.27736,-0.73418 77.6984,-43.39565 10.03661,-27.50775 21.34856,-151.28126 28.76923,-158.87708 3.3871,-2.90322 16.8915,-4.63808 17.53666,-13.47507 0.37173,-8.14269 -2.29878,-10.01722 -6.7412,-9.82038 l -76.31164,1.11518 c -1.77419,-0.32258 -10.9131,2.08866 -10.42373,10.83782 0.94866,11.86963 20.265,4.93075 18.11149,20.86245 z"
       id="path2919"
       style="fill:#00345c;fill-opacity:1;stroke:#000000;stroke-width:1px;stroke-linecap:butt;stroke-linejoin:miter;stroke-opacity:1;display:inline" />
    <path
       d="m 56.871184,808.69668 0,39.95726 234.829056,0 0,-40.17094 -234.829056,0.21368 z"
       id="path2921"
       style="fill:#00345c;fill-opacity:1;stroke:#000000;stroke-width:1px;stroke-linecap:butt;stroke-linejoin:miter;stroke-opacity:1;display:inline" />
    <path
       d="m 97.042121,940.10693 c 13.850079,10.3976 23.177929,13.65838 22.435899,29.05983 -0.8547,14.74359 -31.601949,26.54622 -39.316239,4.48718 -4.05983,-21.79487 10.47008,-28.84616 16.88034,-33.54701 z m 22.540669,-22.37938 c 9.67742,-7.74193 15.65068,-9.12738 15.22746,-25.51695 -1.85553,-15.56934 -32.09511,-15.65579 -33.60353,4.53267 0.3667,5.64241 5.31155,11.79073 18.37607,20.98428 z m -30.446649,13.83237 c -11.32478,-6.62393 -18.805305,-7.84532 -18.75292,-30.55555 0.454922,-15.76052 19.58891,-32.86601 47.812749,-32.90599 27.77778,0.21368 39.10256,15.17094 38.67521,24.57265 -0.64103,26.49573 -26.7094,33.76069 -26.7094,33.76069 0,0 22.63473,8.96129 21.36752,33.11966 -2.5641,27.77778 -26.7094,39.23207 -52.777779,39.10256 -28.435633,-0.72519 -42.521362,-11.30824 -41.823816,-35.75268 0.814506,-16.34591 21.496166,-31.35302 32.208436,-31.34134 z"
       id="path2927"
       style="fill:#00345c;fill-opacity:1;fill-rule:evenodd;stroke:#000000;stroke-width:1px;stroke-linecap:butt;stroke-linejoin:miter;stroke-opacity:1;display:inline" />
    <path
       d="m 223.9652,999.08129 c -35.25641,-1.7094 -43.37607,-34.18804 -36.11112,-72.86325 6.83761,-35.68375 35.47009,-57.90599 60.25642,-58.54701 23.50428,-0.21368 37.60683,21.5812 36.32478,53.63248 -2.49024,45.75364 -31.0334,77.71045 -60.47008,77.77778 z m 5.34187,-13.24787 c -12.98712,0.34593 -18.04954,-7.20283 -10.85795,-57.36815 6.84523,-30.87373 13.223,-48.17235 29.87505,-47.97373 6.22386,-0.033 11.85314,20.63203 1.49573,67.73505 0,0 -5.98291,35.04274 -20.51283,37.60683 z"
       id="path2931"
       style="fill:#00345c;fill-opacity:1;fill-rule:evenodd;stroke:#000000;stroke-width:1px;stroke-linecap:butt;stroke-linejoin:miter;stroke-opacity:1;display:inline" />
  </g>
</svg>
