<?xml version="1.0" encoding="UTF-8" standalone="no"?>
<svg xmlns:rdf="http://www.w3.org/1999/02/22-rdf-syntax-ns#" xmlns="http://www.w3.org/2000/svg" height="125.25mm" width="197.56mm" version="1.1" xmlns:cc="http://creativecommons.org/ns#" xmlns:dc="http://purl.org/dc/elements/1.1/" viewBox="0 0 700.00001 443.78502">
 <g transform="translate(-2.7596e-8 -.57717)">
  <path d="m109.06 388.9c0.002-61.145-0.16824-59.326 5.9605-63.824 2.5729-1.8882 3.929-1.962 40.817-2.2196 36.357-0.25393 38.355-0.17805 42.397 1.6096 3.3229 1.4699 4.6392 2.7528 6.0788 5.9248 1.6714 3.6827 1.8392 6.3074 1.8567 29.039 0.0169 21.955-0.18101 25.383-1.6296 28.224-2.2399 4.3926-5.6566 6.6898-11.839 7.9588l-5.1973 1.0672 8.8821 22.162c4.8851 12.189 9.1225 22.916 9.4164 23.84 0.49668 1.56-0.34477 1.6595-11.948 1.4146l-12.482-0.2639-9.9498-23.812-9.9498-23.812h-13.947-13.947v24.048 24.047h-12.26-12.26l0.002-55.404zm71.67-29.942v-11.788h-23.576-23.576v11.788 11.788h23.576 23.576v-11.788zm57.526 24.519v-60.826h12.26 12.26v24.048 24.048h23.576 23.576v-24.048-24.048h12.731 12.731v60.854 60.854l-12.495-0.2629-12.495-0.2634-0.25194-23.812-0.25196-23.812h-23.56-23.56v24.048 24.047h-12.26-12.26v-60.826zm138.38 59.484c-4.4136-1.5824-6.0508-2.9227-8.0691-6.6052-1.4324-2.6137-1.5881-7.7995-1.5881-52.879 0-48.285 0.064-50.09 1.8861-53.183 1.0373-1.7612 3.0836-4.0952 4.5473-5.1868 2.5814-1.9251 3.7483-1.9927 38.9-2.2525l36.239-0.26783v12.292 12.292h-28.291-28.291v35.822 35.822l28.055 0.2497 28.056 0.2497v12.26 12.259l-33.95 0.2007c-26.502 0.1564-34.727-0.079-37.495-1.0709zm103.04-22.706v-24.048h-3.6253c-3.6003 0-3.6818-0.084-11.788-12.253-4.4895-6.7395-8.1627-12.468-8.1627-12.731 0-0.26263 5.2733-0.47751 11.719-0.47751h11.719l0.30529-19.097c0.35498-22.206 0.91592-24.143 7.8863-27.226 3.9199-1.734 6.2312-1.8196 42.302-1.5677 37.102 0.25916 38.229 0.32131 40.817 2.2512 1.4637 1.0916 3.5101 3.4256 4.5474 5.1868 1.8281 3.1036 1.8861 4.8981 1.8861 58.37v55.168l-12.495 0.2634-12.495 0.2629v-24.546-24.546h-23.576-23.576v24.519 24.519h-12.731-12.731v-24.047zm72.614-61.769v-11.316h-23.576-23.576v11.316 11.317h23.576 23.576v-11.317zm-152.77 24.991v-12.731h12.113 12.113l8.1022 12.163c4.4562 6.6896 7.8465 12.419 7.534 12.731-0.31255 0.3128-9.4093 0.5683-20.215 0.5683h-19.647v-12.731zm-50.38-111.84c-0.95039-2.8578-4.2069-31.617-5.7015-50.352-3.3985-42.6-3.2029-113.31 0.45409-164.09 1.6112-22.374 4.744-54.603 5.4886-56.463 1.1844-2.9591 6.3174 39.32 9.66 79.568 1.6698 20.106 1.8868 99.112 0.32763 119.29-2.1688 28.075-7.7183 71.282-9.3672 72.931-0.23353 0.23351-0.62122-0.16658-0.8615-0.88918zm-340.98-25.03c68.787-16.25 132.01-42.1 176.34-72.08 23.052-15.593 44.082-34.916 56.125-51.566 3.0592-4.2298 5.729-7.5237 5.9329-7.3198 0.68228 0.68228-1.9275 7.4935-5.9804 15.608-21.242 42.53-78.576 79.192-157.83 100.92-19.029 5.2175-39.775 9.7482-62.377 13.622-22.463 3.8502-26.076 4.0926-12.224 0.81983zm681.82 0.97c-107.74-17.45-183.3-51.76-219.33-99.59-7.1093-9.4377-14.918-23.971-16.103-29.97-0.57176-2.8948 0.22385-2.1412 6.4708 6.1298 31.396 41.569 89.489 77.549 168.3 104.24 19.796 6.7038 41.921 13.122 60.165 17.455 13.847 3.288 14.027 3.9246 0.49053 1.7322zm-530.94-10.16c43.045-18.035 84.33-52.353 109.6-91.108 15.313-23.482 25.485-48.664 31.375-77.676 1.2498-6.1555 2.5531-11.46 2.8964-11.788 1.2607-1.2042-0.33619 34.396-1.9403 43.255-6.0792 33.577-23.064 65.586-46.819 88.235-22.673 21.617-54.219 38.815-89.798 48.954-10.307 2.9371-12.125 2.9811-5.317 0.12873zm372.97-1.3795c-25.466-7.8482-48.163-18.788-67.428-32.499-12.186-8.6735-31.263-28.306-39.474-40.625-11.992-17.991-20.428-38.119-24.589-58.669-2.3411-11.562-3.8668-32.389-3.0325-41.395l0.61154-6.6013 2.1668 10.915c11.362 57.234 40.786 103.32 89.385 140.01 16.151 12.192 32.728 21.78 54.149 31.319 4.6758 2.0823-0.69553 0.96376-11.788-2.4548z" fill="#9dceeb"/>
  <path d="m109.06 388.9c0.002-61.145-0.16824-59.326 5.9605-63.824 2.5729-1.8882 3.929-1.962 40.817-2.2196 36.357-0.25393 38.355-0.17805 42.397 1.6096 3.3229 1.4699 4.6392 2.7528 6.0788 5.9248 1.6714 3.6827 1.8392 6.3074 1.8567 29.039 0.0169 21.955-0.18101 25.383-1.6296 28.224-2.2399 4.3926-5.6566 6.6898-11.839 7.9588l-5.1973 1.0672 8.8821 22.162c4.8851 12.189 9.1225 22.916 9.4164 23.84 0.49668 1.56-0.34477 1.6595-11.948 1.4146l-12.482-0.2639-9.9498-23.812-9.9498-23.812h-13.947-13.947v24.048 24.047h-12.26-12.26l0.002-55.404zm71.67-29.942v-11.788h-23.576-23.576v11.788 11.788h23.576 23.576v-11.788zm57.526 24.519v-60.826h12.26 12.26v24.048 24.048h23.576 23.576v-24.048-24.048h12.731 12.731v60.854 60.854l-12.495-0.2629-12.495-0.2634-0.25194-23.812-0.25196-23.812h-23.56-23.56v24.048 24.047h-12.26-12.26v-60.826zm138.38 59.484c-4.4136-1.5824-6.0508-2.9227-8.0691-6.6052-1.4324-2.6137-1.5881-7.7995-1.5881-52.879 0-48.285 0.064-50.09 1.8861-53.183 1.0373-1.7612 3.0836-4.0952 4.5473-5.1868 2.5814-1.9251 3.7483-1.9927 38.9-2.2525l36.239-0.26783v12.292 12.292h-28.291-28.291v35.822 35.822l28.055 0.2497 28.056 0.2497v12.26 12.259l-33.95 0.2007c-26.502 0.1564-34.727-0.079-37.495-1.0709zm103.04-22.706v-24.048h-3.6253c-3.6003 0-3.6818-0.084-11.788-12.253-4.4895-6.7395-8.1627-12.468-8.1627-12.731 0-0.26263 5.2733-0.47751 11.719-0.47751h11.719l0.30529-19.097c0.35498-22.206 0.91592-24.143 7.8863-27.226 3.9199-1.734 6.2312-1.8196 42.302-1.5677 37.102 0.25916 38.229 0.32131 40.817 2.2512 1.4637 1.0916 3.5101 3.4256 4.5474 5.1868 1.8281 3.1036 1.8861 4.8981 1.8861 58.37v55.168l-12.495 0.2634-12.495 0.2629v-24.546-24.546h-23.576-23.576v24.519 24.519h-12.731-12.731v-24.047zm72.614-61.769v-11.316h-23.576-23.576v11.316 11.317h23.576 23.576v-11.317zm-152.77 24.991v-12.731h12.113 12.113l8.1022 12.163c4.4562 6.6896 7.8465 12.419 7.534 12.731-0.31255 0.3128-9.4093 0.5683-20.215 0.5683h-19.647v-12.731zm-50.396-113.76c-0.98059-4.3205-3.3324-25.049-4.7472-41.841-5.2138-61.88-4.204-134.23 2.8954-207.47 2.1196-21.865 2.5238-22.17 4.8991-3.6991 9.4974 73.854 11.15 143.88 4.8595 205.98-1.6731 16.518-6.2274 48.031-7.0692 48.914-0.18192 0.19088-0.55889-0.65785-0.83765-1.8861zm-343.97-22.2c0.68076-0.27241 1.4941-0.23893 1.8075 0.0744 0.31336 0.31335-0.24362 0.53625-1.2377 0.49531-1.0986-0.0452-1.3221-0.26872-0.56975-0.56975zm689.36 0c0.68073-0.27241 1.4941-0.23893 1.8075 0.0744 0.31337 0.31335-0.24362 0.53625-1.2377 0.49531-1.0986-0.0452-1.322-0.26872-0.56976-0.56975zm-672.21-4.03c101.48-26.593 179.5-69.025 216.43-117.7 3.6307-4.7857 6.7325-8.3082 6.8928-7.828 0.61566 1.8439-5.8312 15.36-11.249 23.583-6.3345 9.6154-19.12 23.466-30.169 32.681-38.547 32.151-101.57 56.849-180.32 70.663-7.3253 1.2849-13.754 2.303-14.286 2.2623-0.53178-0.0406 5.1865-1.6865 12.707-3.6574zm648.81 0.46878c-98.362-18.579-166.67-51.461-200.69-96.614-5.4704-7.2598-14.393-23.984-15.589-29.22-0.61604-2.6961-0.54575-2.621 6.5257 6.9729 6.8123 9.2423 24.479 27.114 35.29 35.7 42.644 33.866 104.58 62.216 178.71 81.805 19.92 5.2638 18.627 5.6772-4.2437 1.3572zm-498.71-12.539c54.37-27.504 95.784-71.288 116.18-122.83 4.9865-12.602 10.243-30.434 11.953-40.551 1.7642-10.436 2.7948-10.144 2.7948 0.79159 0 48.383-19.727 93.323-54.356 123.83-20.256 17.844-44.093 30.959-74.527 41.006-8.4382 2.7857-15.603 5.065-15.922 5.065-0.31886 0 5.927-3.2916 13.88-7.3146zm353.48 2.2433c-36.56-12.51-60.06-26.45-82.04-48.64-30.11-30.42-46.33-70.73-46.11-114.62l0.0661-13.203 2.2455 10.744c4.6757 22.371 10.504 39.262 20.045 58.098 22.254 43.933 58.737 79.769 106.27 104.38 7.7801 4.0289 13.509 7.3136 12.731 7.2992-0.77801-0.0144-6.7192-1.8412-13.203-4.0598z" fill="#c0c0c0"/>
  <path d="m109.27 387.96 0.26417-56.347 2.1338-2.9914c4.1887-5.8724 5.9144-6.0827 47.386-5.7736 50.638 0.37745 46.671-2.6924 46.671 36.113 0 23.639-0.17769 26.731-1.6961 29.512-2.3639 4.3295-6.784 6.7877-12.214 6.7919-2.4637 0-4.4794 0.212-4.4794 0.4671 0 0.2548 4.2437 11.08 9.4304 24.056s9.4304 23.813 9.4304 24.083c0 0.2702-5.5558 0.3726-12.346 0.228l-12.346-0.2634-10.054-24.048-10.054-24.047-13.907-0.2613-13.907-0.2607v24.544 24.544h-12.288-12.288l0.2642-56.347zm72.407-28.999v-11.788h-24.048-24.048v11.788 11.788h24.048 24.048v-11.788zm56.583 24.519v-60.826h12.26 12.26v24.048 24.048h24.048 24.048v-24.048-24.048h12.266 12.266l-0.24268 60.59-0.24269 60.59-12.008 0.264-12.008 0.2637-0.25173-24.312-0.25175-24.311-23.812-0.2522-23.812-0.2519v24.535 24.535h-12.26-12.26v-60.826zm140.36 59.937c-4.7759-0.9305-7.7757-3.1045-9.6064-6.9622-1.3851-2.9187-1.5552-8.7908-1.552-53.588 0.004-48.204 0.0804-50.436 1.8411-53.324 3.9721-6.5145 3.1569-6.3866 42.671-6.695l35.643-0.2782v12.302 12.302h-27.82-27.82v35.836 35.836h27.82 27.82v12.731 12.731l-32.771-0.1084c-18.024-0.059-34.326-0.4114-36.226-0.7813zm101.72 0.2878c-0.36053-0.3603-0.65551-11.406-0.65551-24.546v-23.89h-3.7535c-3.7458 0-3.7692-0.023-11.317-11.289-4.1596-6.2088-7.563-11.726-7.563-12.26 0-0.6118 4.1849-0.97084 11.317-0.97084h11.316v-15.985c0-19.662 0.88433-24.434 5.237-28.255 1.7655-1.5501 4.5983-3.0747 6.2951-3.3878 1.6968-0.31317 19.711-0.44018 40.032-0.28227 35.648 0.27703 37.04 0.35581 39.608 2.2402 6.1285 4.4981 5.9586 2.6792 5.9602 63.824l0.001 55.404h-12.26-12.26v-24.519-24.519h-23.56-23.56l-0.2517 24.284-0.25168 24.283-11.84 0.2628c-6.5119 0.1444-12.135-0.032-12.495-0.3931zm71.959-84.743v-11.788h-23.576-23.576v11.788 11.788h23.576 23.576v-11.788zm-152.77 24.048v-12.26l12.024 0.018 12.024 0.0181 7.5443 11.419c4.1494 6.2802 7.6858 11.789 7.8587 12.242 0.17289 0.4524-8.6328 0.8229-19.568 0.8229h-19.882v-12.26zm-50.41-113.3c-0.98059-4.3205-3.3324-25.049-4.7472-41.841-5.2138-61.88-4.204-134.23 2.8954-207.47 2.1196-21.865 2.5238-22.17 4.8991-3.6991 9.4974 73.854 11.15 143.88 4.8595 205.98-1.6731 16.518-6.2274 48.031-7.0692 48.914-0.18192 0.19088-0.55889-0.65785-0.83765-1.8861zm-343.97-22.21c0.68076-0.27241 1.4941-0.23893 1.8075 0.0744 0.31336 0.31335-0.24362 0.53625-1.2377 0.49531-1.0986-0.0452-1.3221-0.26872-0.56975-0.56975zm689.36 0c0.68073-0.27241 1.4941-0.23893 1.8075 0.0744 0.31337 0.31335-0.24362 0.53625-1.2377 0.49531-1.0986-0.0452-1.322-0.26872-0.56976-0.56975zm-672.21-4.03c101.48-26.593 179.5-69.025 216.43-117.7 3.6307-4.7857 6.7325-8.3082 6.8928-7.828 0.61566 1.8439-5.8312 15.36-11.249 23.583-6.3345 9.6154-19.12 23.466-30.169 32.681-38.547 32.151-101.57 56.849-180.32 70.663-7.3253 1.2849-13.754 2.303-14.286 2.2623-0.53178-0.0406 5.1865-1.6865 12.707-3.6574zm648.81 0.46878c-98.362-18.579-166.67-51.461-200.69-96.614-5.4704-7.2598-14.393-23.984-15.589-29.22-0.61604-2.6961-0.54575-2.621 6.5257 6.9729 6.8123 9.2423 24.479 27.114 35.29 35.7 42.644 33.866 104.58 62.216 178.71 81.805 19.92 5.2638 18.627 5.6772-4.2437 1.3572zm-498.71-12.539c54.37-27.504 95.784-71.288 116.18-122.83 4.9865-12.602 10.243-30.434 11.953-40.551 1.7642-10.436 2.7948-10.144 2.7948 0.79159 0 48.383-19.727 93.323-54.356 123.83-20.256 17.844-44.093 30.959-74.527 41.006-8.4382 2.7857-15.603 5.065-15.922 5.065-0.31886 0 5.927-3.2916 13.88-7.3146zm353.48 2.2433c-36.56-12.51-60.06-26.45-82.04-48.64-30.11-30.42-46.33-70.73-46.11-114.62l0.0661-13.203 2.2455 10.744c4.6757 22.371 10.504 39.262 20.045 58.098 22.254 43.933 58.737 79.769 106.27 104.38 7.7801 4.0289 13.509 7.3136 12.731 7.2992-0.77801-0.0144-6.7192-1.8412-13.203-4.0598z" fill="#5db2e1"/>
  <path d="m109.27 387.96 0.26417-56.347 2.1338-2.9914c4.1887-5.8724 5.9144-6.0827 47.386-5.7736 50.638 0.37745 46.671-2.6924 46.671 36.113 0 23.639-0.17769 26.731-1.6961 29.512-2.3639 4.3295-6.784 6.7877-12.214 6.7919-2.4637 0-4.4794 0.212-4.4794 0.4671 0 0.2548 4.2437 11.08 9.4304 24.056s9.4304 23.813 9.4304 24.083c0 0.2702-5.5558 0.3726-12.346 0.228l-12.346-0.2634-10.054-24.048-10.054-24.047-13.907-0.2613-13.907-0.2607v24.544 24.544h-12.288-12.288l0.2642-56.347zm72.407-28.999v-11.788h-24.048-24.048v11.788 11.788h24.048 24.048v-11.788zm56.583 24.519v-60.826h12.26 12.26v24.048 24.048h24.048 24.048v-24.048-24.048h12.266 12.266l-0.24268 60.59-0.24269 60.59-12.008 0.264-12.008 0.2637-0.25173-24.312-0.25175-24.311-23.812-0.2522-23.812-0.2519v24.535 24.535h-12.26-12.26v-60.826zm140.36 59.937c-4.7759-0.9305-7.7757-3.1045-9.6064-6.9622-1.3851-2.9187-1.5552-8.7908-1.552-53.588 0.004-48.204 0.0804-50.436 1.8411-53.324 3.9721-6.5145 3.1569-6.3866 42.671-6.695l35.643-0.2782v12.302 12.302h-27.82-27.82v35.836 35.836h27.82 27.82v12.731 12.731l-32.771-0.1084c-18.024-0.059-34.326-0.4114-36.226-0.7813zm101.72 0.2878c-0.36053-0.3603-0.65551-11.406-0.65551-24.546v-23.89h-3.7535c-3.7458 0-3.7692-0.023-11.317-11.289-4.1596-6.2088-7.563-11.726-7.563-12.26 0-0.6118 4.1849-0.97084 11.317-0.97084h11.316v-15.985c0-19.662 0.88433-24.434 5.237-28.255 1.7655-1.5501 4.5983-3.0747 6.2951-3.3878 1.6968-0.31317 19.711-0.44018 40.032-0.28227 35.648 0.27703 37.04 0.35581 39.608 2.2402 6.1285 4.4981 5.9586 2.6792 5.9602 63.824l0.001 55.404h-12.26-12.26v-24.519-24.519h-23.56-23.56l-0.2517 24.284-0.25168 24.283-11.84 0.2628c-6.5119 0.1444-12.135-0.032-12.495-0.3931zm71.959-84.743v-11.788h-23.576-23.576v11.788 11.788h23.576 23.576v-11.788zm-152.77 24.048v-12.26l12.024 0.018 12.024 0.0181 7.5443 11.419c4.1494 6.2802 7.6858 11.789 7.8587 12.242 0.17289 0.4524-8.6328 0.8229-19.568 0.8229h-19.882v-12.26zm-50.3-114.59c-2.7904-12.708-5.9863-52.458-7.3744-91.72-1.6042-45.378-0.003-93.143 4.9724-148.28 1.0997-12.189 2.2922-22.953 2.65-23.921 1.0041-2.7155 5.9986 38.422 8.5144 70.13 4.9954 62.959 2.3673 139.17-6.464 187.45-1.364 7.4567-1.7934 8.6413-2.2985 6.3408zm-318.61-26.95c60.813-16.461 114.17-39.499 154.66-66.78 21.261-14.325 42.691-33.912 54.799-50.086 6.8055-9.0908 6.8126-7.554 0.0284 6.1298-5.9991 12.1-12.128 20.319-23.943 32.104-31.669 31.592-81.74 56.114-148.12 72.543-15.449 3.8234-50.741 10.955-53.542 10.82-0.63519-0.0308 6.6182-2.1598 16.119-4.7313zm650.87 4.1311c-38.207-6.4691-81.803-18.086-109.86-29.275-49.283-19.651-85.857-45.692-105.01-74.769-5.1398-7.8018-12.135-22.242-11.218-23.159 0.20106-0.20105 2.4585 2.4925 5.0164 5.9857 6.7622 9.2345 23.888 26.6 35.3 35.795 40.645 32.748 103.01 62.012 171.16 80.318 7.7801 2.0897 15.631 4.2026 17.446 4.6951 3.3178 0.90026 1.5662 1.1539-2.8291 0.40967zm-153.72-11.52c-54.85-18.1-91.86-47.52-112.75-89.62-11.48-23.14-17.5-49.34-17.3-75.307l0.085-11.032 2.1543 10.511c9.5461 46.578 30.542 84.601 65.323 118.3 19.368 18.765 42.66 35.152 65.746 46.254 5.213 2.5071 9.0538 4.5396 8.5351 4.5166-0.51867-0.023-5.8233-1.6523-11.788-3.6207zm-354.46-2.7474c39.844-20.427 72.005-48.781 95.385-84.095 13.654-20.624 26.189-50.646 31.025-74.306 1.1879-5.8123 2.4842-10.568 2.8807-10.568 1.0112 0 0.89536 9.9206-0.25888 22.162-6.7521 71.607-51.472 123.78-127.64 148.91-5.648 1.8637-10.683 3.3885-11.188 3.3885-0.50535 0 3.9035-2.4723 9.7975-5.494z" fill="#838383"/>
  <path d="m109.27 387.96c0.25005-52.352 0.36254-55.566 2.0427-58.341 0.97799-1.6154 3.0998-3.7372 4.7152-4.7152 2.7137-1.6429 5.6137-1.8001 38.133-2.0668 39.573-0.3246 43.918 0.0997 47.759 4.665 1.3152 1.563 2.7094 3.9762 3.0983 5.3626 0.38885 1.3864 0.70701 13.766 0.70701 27.511 0 23.297-0.12781 25.207-1.8861 28.185-2.396 4.0576-7.3273 6.708-12.481 6.708-2.2125 0-4.0227 0.4265-4.0227 0.9482 0 0.5216 4.0315 11.016 8.9589 23.321s8.9589 22.699 8.9589 23.099c0 0.3996-5.2735 0.7268-11.719 0.7268h-11.719l-2.2386-4.9514c-1.2312-2.7226-5.8026-13.544-10.159-24.047l-7.92-19.096h-13.958-13.958v24.048 24.048h-12.288-12.288l0.26463-55.404zm72.2-28.763 0.26394-12.024h-24.076-24.076v12.276 12.276l23.812-0.25193 23.812-0.25196 0.26391-12.024zm56.79 23.784v-60.383l12.024 0.26392 12.024 0.26394 0.25168 24.283 0.25167 24.283h24.032 24.032v-24.519-24.519h11.788 11.788v60.355 60.355h-11.788-11.788v-24.048-24.048h-24.048-24.048v24.048 24.048h-12.26-12.26v-60.383zm137.65 59.609c-3.3356-1.4782-5.6752-3.8276-7.0223-7.0518-1.2204-2.9209-1.4334-10.756-1.4334-52.749 0-46.306 0.10734-49.52 1.757-52.605 0.96633-1.8073 3.1943-4.1347 4.951-5.172 3.014-1.7798 5.1738-1.9023 38.322-2.1745l35.128-0.28837v12.312 12.312h-28.302-28.302l0.24696 36.071 0.24697 36.071 28.056 0.25 28.056 0.2497v11.774 11.774l-35.128-0.066c-19.321-0.036-35.779-0.3544-36.575-0.7072zm104.49-23.038-0.25196-23.812-4.0537-0.2924-4.0537-0.2921-7.456-11.496-7.456-11.496 11.51-0.47153 11.51-0.47152 0.47153-19.849c0.72056-30.334-2.7996-28.246 47.624-28.246 41.366 0 42.105 0.0891 45.998 5.547l2.0974 2.9403 0.26439 55.875 0.26439 55.875h-12.288-12.288v-24.535-24.536l-23.812 0.2523-23.812 0.2518-0.25167 24.284-0.25169 24.283h-11.756-11.756l-0.25193-23.812zm71.891-60.591v-11.788h-24.048-24.048v11.159c0 6.1376 0.28291 11.442 0.62869 11.788 0.34579 0.34579 11.167 0.6287 24.048 0.6287h23.419v-11.788zm-152.77 24.519v-11.788h12.285 12.285l6.8666 10.609c3.7766 5.8351 7.185 11.14 7.5742 11.788 0.55715 0.9283-3.5156 1.1789-19.152 1.1789h-19.86v-11.788zm-50.29-115.05c-2.7904-12.708-5.9863-52.458-7.3744-91.72-1.6042-45.378-0.003-93.143 4.9724-148.28 1.0997-12.189 2.2922-22.953 2.65-23.921 1.0041-2.7155 5.9986 38.422 8.5144 70.13 4.9954 62.959 2.3673 139.17-6.464 187.45-1.364 7.4567-1.7934 8.6413-2.2985 6.3408zm-318.61-26.95c60.813-16.461 114.17-39.499 154.66-66.78 21.261-14.325 42.691-33.912 54.799-50.086 6.8055-9.0908 6.8126-7.554 0.0284 6.1298-5.9991 12.1-12.128 20.319-23.943 32.104-31.669 31.592-81.74 56.114-148.12 72.543-15.449 3.8234-50.741 10.955-53.542 10.82-0.63519-0.0308 6.6182-2.1598 16.119-4.7313zm650.87 4.1311c-38.207-6.4691-81.803-18.086-109.86-29.275-49.283-19.651-85.857-45.692-105.01-74.769-5.1398-7.8018-12.135-22.242-11.218-23.159 0.20106-0.20105 2.4585 2.4925 5.0164 5.9857 6.7622 9.2345 23.888 26.6 35.3 35.795 40.645 32.748 103.01 62.012 171.16 80.318 7.7801 2.0897 15.631 4.2026 17.446 4.6951 3.3178 0.90026 1.5662 1.1539-2.8291 0.40967zm-153.72-11.52c-54.85-18.1-91.86-47.52-112.75-89.62-11.48-23.14-17.5-49.34-17.3-75.307l0.085-11.032 2.1543 10.511c9.5461 46.578 30.542 84.601 65.323 118.3 19.368 18.765 42.66 35.152 65.746 46.254 5.213 2.5071 9.0538 4.5396 8.5351 4.5166-0.51867-0.023-5.8233-1.6523-11.788-3.6207zm-354.46-2.7474c39.844-20.427 72.005-48.781 95.385-84.095 13.654-20.624 26.189-50.646 31.025-74.306 1.1879-5.8123 2.4842-10.568 2.8807-10.568 1.0112 0 0.89536 9.9206-0.25888 22.162-6.7521 71.607-51.472 123.78-127.64 148.91-5.648 1.8637-10.683 3.3885-11.188 3.3885-0.50535 0 3.9035-2.4723 9.7975-5.494z" fill="#0d9dd9"/>
  <path d="m109.27 387.96c0.25005-52.352 0.36254-55.566 2.0427-58.341 0.97799-1.6154 3.0998-3.7372 4.7152-4.7152 2.7137-1.6429 5.6137-1.8001 38.133-2.0668 39.573-0.3246 43.918 0.0997 47.759 4.665 1.3152 1.563 2.7094 3.9762 3.0983 5.3626 0.38885 1.3864 0.70701 13.766 0.70701 27.511 0 23.297-0.12781 25.207-1.8861 28.185-2.396 4.0576-7.3273 6.708-12.481 6.708-2.2125 0-4.0227 0.4265-4.0227 0.9482 0 0.5216 4.0315 11.016 8.9589 23.321s8.9589 22.699 8.9589 23.099c0 0.3996-5.2735 0.7268-11.719 0.7268h-11.719l-2.2386-4.9514c-1.2312-2.7226-5.8026-13.544-10.159-24.047l-7.92-19.096h-13.958-13.958v24.048 24.048h-12.288-12.288l0.26463-55.404zm72.2-28.763 0.26394-12.024h-24.076-24.076v12.276 12.276l23.812-0.25193 23.812-0.25196 0.26391-12.024zm56.79 23.784v-60.383l12.024 0.26392 12.024 0.26394 0.25168 24.283 0.25167 24.283h24.032 24.032v-24.519-24.519h11.788 11.788v60.355 60.355h-11.788-11.788v-24.048-24.048h-24.048-24.048v24.048 24.048h-12.26-12.26v-60.383zm137.65 59.609c-3.3356-1.4782-5.6752-3.8276-7.0223-7.0518-1.2204-2.9209-1.4334-10.756-1.4334-52.749 0-46.306 0.10734-49.52 1.757-52.605 0.96633-1.8073 3.1943-4.1347 4.951-5.172 3.014-1.7798 5.1738-1.9023 38.322-2.1745l35.128-0.28837v12.312 12.312h-28.302-28.302l0.24696 36.071 0.24697 36.071 28.056 0.25 28.056 0.2497v11.774 11.774l-35.128-0.066c-19.321-0.036-35.779-0.3544-36.575-0.7072zm104.49-23.038-0.25196-23.812-4.0537-0.2924-4.0537-0.2921-7.456-11.496-7.456-11.496 11.51-0.47153 11.51-0.47152 0.47153-19.849c0.72056-30.334-2.7996-28.246 47.624-28.246 41.366 0 42.105 0.0891 45.998 5.547l2.0974 2.9403 0.26439 55.875 0.26439 55.875h-12.288-12.288v-24.535-24.536l-23.812 0.2523-23.812 0.2518-0.25167 24.284-0.25169 24.283h-11.756-11.756l-0.25193-23.812zm71.891-60.591v-11.788h-24.048-24.048v11.159c0 6.1376 0.28291 11.442 0.62869 11.788 0.34579 0.34579 11.167 0.6287 24.048 0.6287h23.419v-11.788zm-152.77 24.519v-11.788h12.285 12.285l6.8666 10.609c3.7766 5.8351 7.185 11.14 7.5742 11.788 0.55715 0.9283-3.5156 1.1789-19.152 1.1789h-19.86v-11.788z" fill="#3c3c3c"/>
  <path d="m109.26 388.43c0.29972-60.608 0.0868-58.491 6.3051-62.677l3.2044-2.1571 38.761 0.004c37.214 0.004 38.886 0.0794 41.883 1.9067 5.6237 3.4287 5.9517 5.4827 5.6426 35.334l-0.27684 26.734-2.3576 2.5187c-3.2627 3.4854-5.3159 4.4375-10.971 5.0859l-4.8877 0.5604 8.882 22.161c4.8851 12.189 9.1184 22.904 9.4074 23.812 0.48129 1.5117-0.46328 1.6507-11.239 1.6507h-11.765l-5.6512-13.439c-3.1082-7.3909-7.6462-18.212-10.085-24.048l-4.4334-10.609h-14.05-14.05v24.047 24.048h-12.295-12.295l0.27164-54.932zm72.414-28.999v-12.26h-24.048-24.048v12.26 12.26h24.048 24.048v-12.26zm56.583 24.048v-59.883h11.772 11.772l0.25196 23.812 0.25194 23.812 24.283 0.25169 24.283 0.25166v-24.063-24.064h11.788 11.788v59.883 59.883h-11.788-11.788v-24.048-24.048h-24.519-24.519v24.048 24.048h-11.788-11.788v-59.883zm136.81 58.231c-1.7785-0.9067-4.1125-2.8465-5.1867-4.3102-1.9076-2.5997-1.9594-3.8031-2.2212-51.647-0.17048-31.151 0.0815-50.283 0.69224-52.551 0.52819-1.9615 2.2676-4.8193 3.8654-6.3506l2.9052-2.7842 36.246-0.26783 36.246-0.26783v11.82 11.82h-28.291-28.291v36.307 36.307h28.291 28.291v11.788 11.788h-34.657c-31.131-0.0009-34.986-0.1695-37.89-1.6506zm105.55-22.396v-24.048h-4.133-4.1331l-7.5793-11.552-7.5794-11.552 11.712-0.26395 11.712-0.26393v-18.926c0-21.091 0.64921-24.024 6.0543-27.351 2.7488-1.692 5.0388-1.7746 42.687-1.539l39.782 0.24894 2.8962 2.7755c1.5929 1.5266 3.3155 4.285 3.828 6.1298 0.56307 2.0269 0.93388 24.533 0.93706 56.872l0.005 53.518h-11.772-11.772l-0.2517-24.283-0.25166-24.284-24.283-0.2515-24.283-0.252v24.535 24.535h-11.788-11.788v-24.048zm72.614-60.355v-11.788h-24.519-24.519v11.788 11.788h24.519 24.519v-11.788zm-152.77 24.519v-11.788h11.644 11.644l6.1096 9.1947c3.3603 5.0571 6.8687 10.362 7.7966 11.788l1.6871 2.5934h-19.441-19.441v-11.788z"/>
 </g>
</svg>
